<?xml version="1.0" encoding="UTF-8"?>
<!-- Generator: visioncortex VTracer 0.6.3 -->
<svg version="1.1" xmlns="http://www.w3.org/2000/svg" width="1280" height="1280">
<path d="M0 0 C1.19 0.01 2.38 0.02 3.6 0.03 C4.52 0.04 5.43 0.05 6.38 0.06 C6.38 0.72 6.38 1.38 6.38 2.06 C7.26 2.48 7.26 2.48 8.16 2.91 C16.05 7.02 19.56 13.27 23.38 21.06 C23.81 21.91 24.24 22.77 24.68 23.64 C25.93 26.11 27.15 28.58 28.38 31.06 C29.21 32.73 30.04 34.4 30.88 36.06 C76.69 127.69 76.69 127.69 77.58 129.48 C79.14 132.6 80.71 135.73 82.29 138.85 C86.3 146.8 90.16 154.81 93.93 162.89 C95.84 166.96 97.83 170.96 99.98 174.91 C100.4 175.68 100.82 176.45 101.26 177.25 C102.07 178.72 102.89 180.18 103.72 181.63 C106.46 186.59 106.46 186.59 105.97 189.28 C105.78 189.87 105.58 190.46 105.38 191.06 C106.04 191.06 106.69 191.06 107.38 191.06 C109.81 194.43 110.38 195.8 110.38 200.06 C111.04 200.06 111.69 200.06 112.38 200.06 C113.8 203.38 114.77 206.5 115.38 210.06 C116.04 210.06 116.69 210.06 117.38 210.06 C118.8 213.38 119.77 216.5 120.38 220.06 C121.04 220.06 121.69 220.06 122.38 220.06 C123.8 223.38 124.77 226.5 125.38 230.06 C126.04 230.06 126.69 230.06 127.38 230.06 C128.8 233.38 129.77 236.5 130.38 240.06 C131.04 240.06 131.69 240.06 132.38 240.06 C133.8 243.38 134.77 246.5 135.38 250.06 C136.04 250.06 136.69 250.06 137.38 250.06 C138.8 253.38 139.77 256.5 140.38 260.06 C141.04 260.06 141.69 260.06 142.38 260.06 C142.76 261.08 142.76 261.08 143.15 262.12 C144.58 265.56 146.25 268.87 147.94 272.19 C151 278.25 153.94 284.35 156.81 290.5 C160.03 297.37 163.46 304.08 167.05 310.76 C169.81 315.92 172.39 321.14 174.88 326.44 C175.21 327.16 175.55 327.88 175.9 328.62 C177.2 331.41 178.4 334.14 179.38 337.06 C180.37 337.06 181.36 337.06 182.38 337.06 C182.48 336.38 182.58 335.7 182.69 335 C183.77 330.37 185.74 326.24 188 322.06 C189.54 318.71 189.88 315.69 190.38 312.06 C191.04 311.73 191.69 311.4 192.38 311.06 C193.21 308.98 193.21 308.98 193.88 306.56 C194.59 304.09 194.59 304.09 195.38 302.06 C196.04 301.73 196.69 301.4 197.38 301.06 C198.03 299.04 198.03 299.04 198.38 297.06 C199.04 297.06 199.69 297.06 200.38 297.06 C200.31 295.92 200.31 295.92 200.25 294.75 C200.38 292.06 200.38 292.06 202.38 289.06 C203.43 286.65 204.3 284.38 204.88 281.81 C205.04 281.24 205.2 280.66 205.38 280.06 C206.04 279.73 206.69 279.4 207.38 279.06 C208.28 276.95 208.28 276.95 209 274.5 C209.39 273.26 209.39 273.26 209.79 272 C209.98 271.36 210.18 270.72 210.38 270.06 C211.04 270.06 211.69 270.06 212.38 270.06 C212.5 269.03 212.62 268 212.75 266.94 C213.32 263.42 214.04 260.36 215.38 257.06 C216.04 256.73 216.69 256.4 217.38 256.06 C218.03 254.04 218.03 254.04 218.38 252.06 C219.04 252.06 219.69 252.06 220.38 252.06 C220.29 251.2 220.21 250.33 220.12 249.44 C220.43 245.25 221.94 243.43 224.38 240.06 C225.1 238.42 225.77 236.75 226.38 235.06 C227.04 233.4 227.71 231.73 228.38 230.06 C229.04 230.06 229.69 230.06 230.38 230.06 C230.38 228.41 230.38 226.76 230.38 225.06 C231.04 225.06 231.69 225.06 232.38 225.06 C232.88 223.25 233.38 221.44 233.88 219.62 C234.15 218.62 234.43 217.61 234.72 216.57 C235.42 214.33 235.42 214.33 235.38 213.06 C236.04 212.4 236.69 211.74 237.38 211.06 C238.02 208.99 238.02 208.99 238.38 207.06 C239.04 207.06 239.69 207.06 240.38 207.06 C240.49 206.33 240.6 205.59 240.71 204.83 C242.56 197.09 249.24 189.88 255.38 185.06 C257.79 183.96 259.73 183.5 262.38 183.06 C262.38 182.73 262.38 182.4 262.38 182.06 C270.96 181.62 278.92 181.26 286.38 186.06 C288.39 187.95 290.11 189.88 291.8 192.06 C293.36 194.14 293.36 194.14 295.4 196.02 C297.48 198.17 298.73 200.17 300.12 202.81 C300.64 203.78 301.15 204.75 301.68 205.75 C303.91 210.1 306.09 214.47 308.26 218.86 C310.95 224.28 313.77 229.62 316.67 234.93 C322.38 245.44 322.38 245.44 322.38 250.06 C323.04 250.06 323.69 250.06 324.38 250.06 C327.38 256.69 327.38 256.69 327.38 260.06 C328.04 260.06 328.69 260.06 329.38 260.06 C332.38 266.69 332.38 266.69 332.38 270.06 C333.03 270.06 333.7 270.06 334.38 270.06 C337.38 276.69 337.38 276.69 337.38 280.06 C338.03 280.06 338.7 280.06 339.38 280.06 C342.38 286.69 342.38 286.69 342.38 290.06 C343.03 290.06 343.7 290.06 344.38 290.06 C347.38 296.69 347.38 296.69 347.38 300.06 C348.03 300.06 348.7 300.06 349.38 300.06 C352.38 306.69 352.38 306.69 352.38 310.06 C353.03 310.06 353.7 310.06 354.38 310.06 C354.64 310.83 354.91 311.6 355.18 312.4 C355.53 313.4 355.89 314.4 356.25 315.44 C356.6 316.44 356.95 317.43 357.3 318.46 C358.22 321.17 358.22 321.17 360.38 323.06 C360.5 325.69 360.5 325.69 360.38 328.06 C361.03 328.06 361.7 328.06 362.38 328.06 C364.91 331.48 365.74 333.82 365.38 338.06 C366.03 338.06 366.7 338.06 367.38 338.06 C369.91 341.48 370.74 343.82 370.38 348.06 C371.03 348.06 371.7 348.06 372.38 348.06 C374.91 351.48 375.74 353.82 375.38 358.06 C376.03 358.06 376.7 358.06 377.38 358.06 C379.91 361.48 380.74 363.82 380.38 368.06 C381.03 368.06 381.7 368.06 382.38 368.06 C384.91 371.48 385.74 373.82 385.38 378.06 C386.03 378.06 386.7 378.06 387.38 378.06 C389.91 381.48 390.74 383.82 390.38 388.06 C391.03 388.06 391.7 388.06 392.38 388.06 C394.91 391.48 395.74 393.82 395.38 398.06 C396.03 398.06 396.7 398.06 397.38 398.06 C399.91 401.48 400.74 403.82 400.38 408.06 C401.03 408.06 401.7 408.06 402.38 408.06 C404.41 411.79 405.38 413.73 405.38 418.06 C406.03 418.06 406.7 418.06 407.38 418.06 C409.36 422.02 411.34 425.98 413.38 430.06 C416.54 428.48 418 427.69 420.33 425.35 C420.89 424.79 421.45 424.24 422.03 423.67 C422.93 422.76 422.93 422.76 423.85 421.82 C424.5 421.18 425.15 420.53 425.82 419.86 C428 417.69 430.16 415.51 432.33 413.33 C433.89 411.77 435.45 410.22 437 408.66 C441.24 404.43 445.46 400.19 449.69 395.95 C454.1 391.53 458.52 387.11 462.94 382.69 C470.36 375.26 477.77 367.84 485.18 360.41 C492.82 352.75 500.45 345.1 508.09 337.46 C508.56 336.99 509.03 336.51 509.52 336.03 C511.88 333.66 514.24 331.3 516.6 328.93 C536.2 309.32 555.79 289.69 575.38 270.06 C575.71 270.72 576.03 271.38 576.38 272.06 C576.99 271.38 576.99 271.38 577.62 270.69 C583.15 265.56 590.53 266.22 597.64 266.41 C603.42 266.91 606.59 269.37 610.46 273.61 C611.1 274.42 611.73 275.23 612.38 276.06 C613.07 276.91 613.77 277.76 614.5 278.63 C621.87 288.18 622.73 298.33 622.38 310.06 C623.03 310.06 623.7 310.06 624.38 310.06 C624.51 311.12 624.64 312.18 624.78 313.27 C624.96 314.66 625.13 316.05 625.31 317.44 C625.44 318.49 625.44 318.49 625.58 319.55 C626.04 323.43 626.04 323.43 627.38 327.06 C627.45 329.27 627.46 331.48 627.44 333.69 C627.42 335.47 627.42 335.47 627.41 337.29 C627.39 338.66 627.39 338.66 627.38 340.06 C628.03 340.06 628.7 340.06 629.38 340.06 C630.74 344.15 630.81 348.16 631.09 352.45 C631.09 354.99 631.09 354.99 632.38 356.06 C632.56 357.62 632.7 359.18 632.81 360.75 C633.08 363.75 633.4 366.13 634.38 369 C635.64 372.88 635.86 376.61 636.13 380.67 C636.23 383.07 636.23 383.07 637.38 385.06 C637.55 386.81 637.7 388.56 637.81 390.31 C638.07 393.48 638.37 396.04 639.38 399.06 C640.67 402.95 640.86 406.7 641.13 410.77 C641.13 413.03 641.13 413.03 642.38 414.06 C642.56 415.93 642.7 417.81 642.81 419.69 C643.17 424.42 643.95 428.53 645.38 433.06 C647.28 440.45 647.61 447.45 647.38 455.06 C648.03 455.06 648.7 455.06 649.38 455.06 C649.51 456.12 649.64 457.18 649.78 458.27 C649.96 459.66 650.13 461.05 650.31 462.44 C650.44 463.49 650.44 463.49 650.58 464.55 C651.04 468.43 651.04 468.43 652.38 472.06 C652.45 474.27 652.46 476.48 652.44 478.69 C652.42 480.47 652.42 480.47 652.41 482.29 C652.39 483.66 652.39 483.66 652.38 485.06 C653.03 485.06 653.7 485.06 654.38 485.06 C654.51 486.12 654.64 487.18 654.78 488.27 C654.96 489.66 655.13 491.05 655.31 492.44 C655.44 493.49 655.44 493.49 655.58 494.55 C656.04 498.43 656.04 498.43 657.38 502.06 C657.65 504.2 657.82 506.33 658 508.48 C658.33 511.18 658.33 511.18 659.32 514.14 C661.11 520.16 661.51 526.48 662.23 532.7 C662.84 537.76 663.66 542.25 665.38 547.06 C665.62 548.97 665.81 550.89 665.94 552.81 C666.13 556.58 666.13 556.58 667.38 560.06 C667.65 562.79 667.82 565.51 668 568.24 C668.26 571.06 668.26 571.06 669.38 573.53 C670.56 576.52 670.75 579.11 670.94 582.31 C670.85 586 670.85 586 672.38 589.06 C672.45 590.92 672.46 592.77 672.44 594.62 C672.42 596.14 672.42 596.14 672.41 597.69 C672.39 598.87 672.39 598.87 672.38 600.06 C673.03 600.06 673.7 600.06 674.38 600.06 C674.51 601.11 674.64 602.16 674.78 603.24 C674.96 604.62 675.13 606 675.31 607.38 C675.44 608.41 675.44 608.41 675.58 609.47 C675.97 612.46 676.42 615.19 677.38 618.06 C677.44 620.12 677.46 622.19 677.44 624.25 C677.43 625.34 677.42 626.42 677.41 627.54 C677.39 628.79 677.39 628.79 677.38 630.06 C678.03 630.06 678.7 630.06 679.38 630.06 C679.51 631.12 679.64 632.18 679.78 633.27 C679.96 634.66 680.13 636.05 680.31 637.44 C680.44 638.49 680.44 638.49 680.58 639.55 C681.04 643.43 681.04 643.43 682.38 647.06 C682.45 649.27 682.46 651.48 682.44 653.69 C682.43 654.88 682.42 656.06 682.41 657.29 C682.4 658.2 682.39 659.12 682.38 660.06 C683.03 660.06 683.7 660.06 684.38 660.06 C685.95 668.05 687.47 675.92 688.13 684.04 C688.33 686.25 688.33 686.25 689.38 689 C690.64 692.88 690.86 696.61 691.13 700.67 C691.23 703.07 691.23 703.07 692.38 705.06 C692.65 707.79 692.82 710.51 693 713.24 C693.26 716.06 693.26 716.06 694.38 718.53 C695.56 721.52 695.75 724.11 695.94 727.31 C695.85 731 695.85 731 697.38 734.06 C697.45 735.92 697.46 737.77 697.44 739.62 C697.42 741.14 697.42 741.14 697.41 742.69 C697.39 743.87 697.39 743.87 697.38 745.06 C698.03 745.06 698.7 745.06 699.38 745.06 C699.51 746.11 699.64 747.16 699.78 748.24 C699.96 749.62 700.13 751 700.31 752.38 C700.44 753.41 700.44 753.41 700.58 754.47 C700.97 757.46 701.42 760.19 702.38 763.06 C702.44 765.12 702.46 767.19 702.44 769.25 C702.43 770.34 702.42 771.42 702.41 772.54 C702.39 773.79 702.39 773.79 702.38 775.06 C703.03 775.06 703.7 775.06 704.38 775.06 C704.51 776.12 704.64 777.18 704.78 778.27 C704.96 779.66 705.13 781.05 705.31 782.44 C705.44 783.49 705.44 783.49 705.58 784.55 C706.04 788.43 706.04 788.43 707.38 792.06 C707.45 794.27 707.46 796.48 707.44 798.69 C707.43 799.88 707.42 801.06 707.41 802.29 C707.4 803.2 707.39 804.12 707.38 805.06 C708.03 805.06 708.7 805.06 709.38 805.06 C710.95 813.05 712.47 820.92 713.13 829.04 C713.33 831.25 713.33 831.25 714.38 834 C715.64 837.88 715.86 841.61 716.13 845.67 C716.23 848.07 716.23 848.07 717.38 850.06 C717.65 852.79 717.82 855.51 718 858.24 C718.26 861.06 718.26 861.06 719.38 863.53 C720.56 866.52 720.75 869.11 720.94 872.31 C720.85 876 720.85 876 722.38 879.06 C722.56 880.95 722.7 882.85 722.81 884.75 C723.15 889.22 723.85 892.84 725.38 897.06 C727.24 904.77 727.62 912.16 727.38 920.06 C728.03 920.06 728.7 920.06 729.38 920.06 C729.51 921.12 729.64 922.18 729.78 923.27 C729.96 924.66 730.13 926.05 730.31 927.44 C730.44 928.49 730.44 928.49 730.58 929.55 C731.04 933.43 731.04 933.43 732.38 937.06 C732.45 939.27 732.46 941.48 732.44 943.69 C732.43 944.88 732.42 946.06 732.41 947.29 C732.4 948.2 732.39 949.12 732.38 950.06 C733.03 950.06 733.7 950.06 734.38 950.06 C734.51 951.13 734.64 952.2 734.78 953.31 C734.96 954.71 735.13 956.1 735.31 957.5 C735.44 958.56 735.44 958.56 735.58 959.64 C735.76 963.15 735.76 963.15 737.38 966.06 C737.56 967.6 737.7 969.14 737.81 970.69 C738.09 973.85 738.5 976.49 739.38 979.56 C740.47 983.38 740.83 986.98 741.13 990.93 C741.26 993.11 741.26 993.11 742.38 995.06 C742.69 997.91 742.89 1000.77 743.09 1003.63 C743.11 1006.01 743.11 1006.01 744.38 1007.06 C746.62 1018.85 746.62 1018.85 744.2 1023.15 C742.34 1024.76 740.54 1025.9 738.38 1027.06 C737.59 1027.52 736.81 1027.98 736.01 1028.45 C734.48 1029.32 732.95 1030.17 731.39 1030.98 C729.16 1032.13 729.16 1032.13 726.38 1034.06 C725.38 1034.06 724.39 1034.06 723.38 1034.06 C723.38 1034.72 723.38 1035.38 723.38 1036.06 C721.72 1036.39 720.08 1036.72 718.38 1037.06 C718.05 1038.05 717.72 1039.04 717.38 1040.06 C714.79 1041.56 714.79 1041.56 711.56 1043.06 C707.18 1045.1 707.18 1045.1 703.18 1047.75 C701.38 1049.06 701.38 1049.06 698.38 1049.06 C698.38 1049.72 698.38 1050.38 698.38 1051.06 C696.72 1051.39 695.08 1051.72 693.38 1052.06 C693.05 1053.05 692.72 1054.04 692.38 1055.06 C689.79 1056.56 689.79 1056.56 686.56 1058.06 C682.18 1060.1 682.18 1060.1 678.18 1062.75 C676.38 1064.06 676.38 1064.06 673.38 1064.06 C673.38 1064.72 673.38 1065.38 673.38 1066.06 C671.72 1066.39 670.08 1066.72 668.38 1067.06 C668.05 1068.05 667.72 1069.04 667.38 1070.06 C664.79 1071.56 664.79 1071.56 661.56 1073.06 C657.18 1075.1 657.18 1075.1 653.18 1077.75 C651.38 1079.06 651.38 1079.06 648.38 1079.06 C648.38 1079.72 648.38 1080.38 648.38 1081.06 C646.73 1081.39 645.08 1081.72 643.38 1082.06 C643.38 1082.72 643.38 1083.38 643.38 1084.06 C642.4 1084.62 641.42 1085.17 640.42 1085.74 C639.13 1086.47 637.85 1087.21 636.56 1087.94 C635.92 1088.3 635.28 1088.67 634.62 1089.04 C631.81 1090.64 629.07 1092.27 626.38 1094.06 C625.38 1094.06 624.39 1094.06 623.38 1094.06 C623.38 1094.72 623.38 1095.38 623.38 1096.06 C621.73 1096.39 620.08 1096.72 618.38 1097.06 C618.38 1097.72 618.38 1098.38 618.38 1099.06 C617.4 1099.62 616.42 1100.17 615.42 1100.74 C614.13 1101.47 612.85 1102.21 611.56 1102.94 C610.92 1103.3 610.28 1103.67 609.62 1104.04 C606.81 1105.64 604.07 1107.27 601.38 1109.06 C600.38 1109.06 599.39 1109.06 598.38 1109.06 C598.38 1109.72 598.38 1110.38 598.38 1111.06 C596.73 1111.39 595.08 1111.72 593.38 1112.06 C593.38 1112.72 593.38 1113.38 593.38 1114.06 C592.4 1114.62 591.42 1115.17 590.42 1115.74 C589.13 1116.47 587.85 1117.21 586.56 1117.94 C585.92 1118.3 585.28 1118.67 584.62 1119.04 C581.81 1120.64 579.07 1122.27 576.38 1124.06 C575.38 1124.06 574.39 1124.06 573.38 1124.06 C573.38 1124.72 573.38 1125.38 573.38 1126.06 C571.73 1126.39 570.08 1126.72 568.38 1127.06 C568.38 1127.72 568.38 1128.38 568.38 1129.06 C567.4 1129.62 566.42 1130.17 565.42 1130.74 C564.13 1131.47 562.85 1132.21 561.56 1132.94 C560.92 1133.3 560.28 1133.67 559.62 1134.04 C556.81 1135.64 554.07 1137.27 551.38 1139.06 C550.38 1139.06 549.39 1139.06 548.38 1139.06 C548.38 1139.72 548.38 1140.38 548.38 1141.06 C546.73 1141.39 545.08 1141.72 543.38 1142.06 C543.38 1142.72 543.38 1143.38 543.38 1144.06 C542.4 1144.62 541.42 1145.17 540.42 1145.74 C539.13 1146.47 537.85 1147.21 536.56 1147.94 C535.92 1148.3 535.28 1148.67 534.62 1149.04 C531.81 1150.64 529.07 1152.27 526.38 1154.06 C525.38 1154.06 524.39 1154.06 523.38 1154.06 C523.38 1154.72 523.38 1155.38 523.38 1156.06 C521.73 1156.39 520.08 1156.72 518.38 1157.06 C518.38 1157.72 518.38 1158.38 518.38 1159.06 C517.4 1159.62 516.42 1160.17 515.42 1160.74 C514.13 1161.47 512.85 1162.21 511.56 1162.94 C510.92 1163.3 510.28 1163.67 509.62 1164.04 C506.81 1165.64 504.07 1167.27 501.38 1169.06 C500.38 1169.06 499.39 1169.06 498.38 1169.06 C498.38 1169.72 498.38 1170.38 498.38 1171.06 C496.73 1171.39 495.08 1171.72 493.38 1172.06 C493.38 1172.72 493.38 1173.38 493.38 1174.06 C492.4 1174.62 491.42 1175.17 490.42 1175.74 C489.13 1176.47 487.85 1177.21 486.56 1177.94 C485.92 1178.3 485.28 1178.67 484.62 1179.04 C481.81 1180.64 479.07 1182.27 476.38 1184.06 C475.38 1184.06 474.39 1184.06 473.38 1184.06 C473.38 1184.72 473.38 1185.38 473.38 1186.06 C471.73 1186.39 470.08 1186.72 468.38 1187.06 C468.38 1187.72 468.38 1188.38 468.38 1189.06 C467.4 1189.62 466.42 1190.17 465.42 1190.74 C464.13 1191.47 462.85 1192.21 461.56 1192.94 C460.92 1193.3 460.28 1193.67 459.62 1194.04 C456.81 1195.64 454.07 1197.27 451.38 1199.06 C450.38 1199.06 449.39 1199.06 448.38 1199.06 C448.38 1199.72 448.38 1200.38 448.38 1201.06 C446.73 1201.39 445.08 1201.72 443.38 1202.06 C443.38 1202.72 443.38 1203.38 443.38 1204.06 C442.4 1204.62 441.42 1205.17 440.42 1205.74 C439.13 1206.47 437.85 1207.21 436.56 1207.94 C435.92 1208.3 435.28 1208.67 434.62 1209.04 C431.81 1210.64 429.07 1212.27 426.38 1214.06 C425.38 1214.06 424.39 1214.06 423.38 1214.06 C423.38 1214.72 423.38 1215.38 423.38 1216.06 C421.73 1216.39 420.08 1216.72 418.38 1217.06 C418.38 1217.72 418.38 1218.38 418.38 1219.06 C417.4 1219.62 416.42 1220.17 415.42 1220.74 C414.13 1221.47 412.85 1222.21 411.56 1222.94 C410.92 1223.3 410.28 1223.67 409.62 1224.04 C406.81 1225.64 404.07 1227.27 401.38 1229.06 C400.38 1229.06 399.39 1229.06 398.38 1229.06 C398.38 1229.72 398.38 1230.38 398.38 1231.06 C396.73 1231.39 395.08 1231.72 393.38 1232.06 C393.38 1232.72 393.38 1233.38 393.38 1234.06 C392.4 1234.62 391.42 1235.17 390.42 1235.74 C389.13 1236.47 387.85 1237.21 386.56 1237.94 C385.92 1238.3 385.28 1238.67 384.62 1239.04 C381.81 1240.64 379.07 1242.27 376.38 1244.06 C375.38 1244.06 374.39 1244.06 373.38 1244.06 C373.38 1244.72 373.38 1245.38 373.38 1246.06 C371.73 1246.39 370.08 1246.72 368.38 1247.06 C368.38 1247.72 368.38 1248.38 368.38 1249.06 C367.4 1249.62 366.42 1250.17 365.42 1250.74 C364.13 1251.47 362.85 1252.21 361.56 1252.94 C360.92 1253.3 360.28 1253.67 359.62 1254.04 C356.81 1255.64 354.07 1257.27 351.38 1259.06 C350.38 1259.06 349.39 1259.06 348.38 1259.06 C348.38 1259.72 348.38 1260.38 348.38 1261.06 C347.47 1261.5 346.56 1261.93 345.62 1262.38 C342.9 1263.79 340.8 1265.23 338.38 1267.06 C329.43 1272.84 329.43 1272.84 323.38 1272.06 C323.38 1272.72 323.38 1273.38 323.38 1274.06 C317.46 1275.63 311.49 1276.87 305.48 1278.01 C301.82 1278.7 301.82 1278.7 298.38 1280.06 C295.88 1280.17 293.41 1280.23 290.92 1280.23 C290.18 1280.23 289.44 1280.24 288.68 1280.24 C287.11 1280.25 285.54 1280.25 283.97 1280.25 C281.58 1280.25 279.19 1280.27 276.8 1280.29 C275.28 1280.29 273.75 1280.29 272.23 1280.29 C271.16 1280.3 271.16 1280.3 270.07 1280.31 C266.04 1280.3 263.02 1279.78 259.38 1278.06 C257.63 1277.67 255.88 1277.31 254.12 1277 C249.48 1276.17 249.48 1276.17 248.38 1275.06 C246.05 1274.69 243.71 1274.36 241.38 1274.06 C241.38 1273.4 241.38 1272.74 241.38 1272.06 C240.43 1272.08 239.48 1272.1 238.5 1272.12 C235.38 1272.06 235.38 1272.06 233.38 1271.06 C233.38 1270.4 233.38 1269.74 233.38 1269.06 C232.69 1268.98 232.01 1268.9 231.31 1268.81 C227.5 1267.84 224.73 1266.1 221.38 1264.06 C221.38 1263.4 221.38 1262.74 221.38 1262.06 C219.73 1261.73 218.08 1261.4 216.38 1261.06 C216.38 1260.4 216.38 1259.74 216.38 1259.06 C215.43 1258.98 214.48 1258.9 213.5 1258.81 C212.47 1258.57 211.44 1258.32 210.38 1258.06 C209.68 1256.75 209.01 1255.41 208.38 1254.06 C206.02 1253.37 206.02 1253.37 203.38 1253.06 C201.7 1252.43 200.02 1251.77 198.38 1251.06 C198.38 1250.4 198.38 1249.74 198.38 1249.06 C196.92 1248.66 196.92 1248.66 195.44 1248.25 C193.92 1247.66 193.92 1247.66 192.38 1247.06 C192.05 1246.07 191.71 1245.08 191.38 1244.06 C190.67 1243.96 189.97 1243.86 189.25 1243.75 C184.13 1242.53 179.83 1239.79 175.38 1237.06 C174.71 1236.73 174.06 1236.4 173.38 1236.06 C173.38 1235.4 173.38 1234.74 173.38 1234.06 C172.67 1233.98 171.97 1233.9 171.25 1233.81 C167.69 1232.88 165.41 1231.14 162.38 1229.06 C160.27 1227.99 158.15 1226.98 156.01 1225.99 C154.37 1225.06 154.37 1225.06 153.38 1223.06 C151.8 1222.19 150.19 1221.39 148.56 1220.62 C145.18 1219.03 142.35 1217.31 139.38 1215.06 C138.38 1214.73 137.39 1214.4 136.38 1214.06 C136.38 1213.4 136.38 1212.74 136.38 1212.06 C135.71 1212 135.06 1211.94 134.38 1211.88 C130.25 1210.76 126.72 1208.72 123.38 1206.06 C123.38 1205.4 123.38 1204.74 123.38 1204.06 C122.69 1203.98 122.01 1203.9 121.31 1203.81 C117.6 1202.86 114.61 1201.04 111.38 1199.06 C110.41 1198.53 109.44 1197.99 108.44 1197.44 C107.76 1196.98 107.08 1196.53 106.38 1196.06 C106.38 1195.4 106.38 1194.74 106.38 1194.06 C105.43 1193.98 104.48 1193.9 103.5 1193.81 C102.47 1193.57 101.44 1193.32 100.38 1193.06 C99.68 1191.75 99.01 1190.41 98.38 1189.06 C96.02 1188.37 96.02 1188.37 93.38 1188.06 C91.7 1187.43 90.02 1186.77 88.38 1186.06 C88.38 1185.4 88.38 1184.74 88.38 1184.06 C87.69 1184 87.01 1183.94 86.31 1183.88 C82.96 1182.95 81.03 1181.48 78.29 1179.41 C75.17 1177.22 71.81 1175.69 68.38 1174.06 C68.38 1173.4 68.38 1172.74 68.38 1172.06 C67.65 1171.96 66.92 1171.86 66.16 1171.75 C63.11 1171 61.3 1169.88 58.75 1168.06 C56.2 1166.25 54.37 1165.06 51.38 1164.06 C51.38 1163.4 51.38 1162.74 51.38 1162.06 C50.53 1162 49.68 1161.94 48.81 1161.88 C44.61 1160.88 41.51 1159.04 38.38 1156.06 C38.38 1155.4 38.38 1154.74 38.38 1154.06 C37.35 1153.94 37.35 1153.94 36.31 1153.81 C32.6 1152.86 29.61 1151.04 26.38 1149.06 C25.41 1148.53 24.44 1147.99 23.44 1147.44 C22.76 1146.98 22.08 1146.53 21.38 1146.06 C21.38 1145.4 21.38 1144.74 21.38 1144.06 C19.95 1143.94 19.95 1143.94 18.5 1143.81 C17.47 1143.57 16.44 1143.32 15.38 1143.06 C14.68 1141.75 14.01 1140.41 13.38 1139.06 C11.02 1138.37 11.02 1138.37 8.38 1138.06 C6.7 1137.43 5.02 1136.77 3.38 1136.06 C3.38 1135.4 3.38 1134.74 3.38 1134.06 C2.69 1134 2.01 1133.94 1.31 1133.88 C-2.04 1132.95 -3.97 1131.48 -6.71 1129.41 C-9.83 1127.22 -13.19 1125.69 -16.62 1124.06 C-16.62 1123.4 -16.62 1122.74 -16.62 1122.06 C-17.36 1121.95 -18.1 1121.85 -18.86 1121.73 C-21.79 1121.02 -23.4 1120.07 -25.81 1118.31 C-29.05 1116.06 -32.26 1114.16 -35.81 1112.44 C-39.67 1110.57 -43.21 1108.67 -46.62 1106.06 C-46.62 1105.4 -46.62 1104.74 -46.62 1104.06 C-47.94 1104.06 -49.26 1104.06 -50.62 1104.06 C-50.62 1103.4 -50.62 1102.74 -50.62 1102.06 C-52.61 1101.73 -54.58 1101.4 -56.62 1101.06 C-56.62 1100.4 -56.62 1099.74 -56.62 1099.06 C-58.08 1098.66 -58.08 1098.66 -59.56 1098.25 C-61.08 1097.66 -61.08 1097.66 -62.62 1097.06 C-63.12 1095.58 -63.12 1095.58 -63.62 1094.06 C-64.57 1093.98 -65.52 1093.9 -66.5 1093.81 C-67.53 1093.57 -68.56 1093.32 -69.62 1093.06 C-70.32 1091.75 -70.99 1090.41 -71.62 1089.06 C-73.28 1088.68 -74.95 1088.36 -76.62 1088.06 C-79.03 1086.79 -81.31 1085.48 -83.62 1084.06 C-88.89 1080.87 -94.09 1077.76 -99.62 1075.06 C-104.21 1072.38 -108.65 1069.48 -113.1 1066.59 C-115.61 1064.95 -115.61 1064.95 -118.62 1064.06 C-118.62 1063.4 -118.62 1062.74 -118.62 1062.06 C-119.39 1061.96 -120.15 1061.86 -120.94 1061.75 C-123.92 1060.99 -124.56 1060.21 -126.62 1058.06 C-129.22 1056.87 -129.22 1056.87 -131.62 1056.06 C-131.62 1055.4 -131.62 1054.74 -131.62 1054.06 C-132.32 1053.97 -133.01 1053.87 -133.73 1053.78 C-137.22 1052.92 -139.84 1051.44 -142.94 1049.62 C-144.54 1048.7 -144.54 1048.7 -146.18 1047.75 C-147.39 1046.92 -147.39 1046.92 -148.62 1046.06 C-148.62 1045.4 -148.62 1044.74 -148.62 1044.06 C-149.57 1043.98 -150.52 1043.9 -151.5 1043.81 C-152.53 1043.57 -153.56 1043.32 -154.62 1043.06 C-155.32 1041.75 -155.99 1040.41 -156.62 1039.06 C-158.28 1038.68 -159.95 1038.36 -161.62 1038.06 C-164.05 1036.85 -166.31 1035.47 -168.62 1034.06 C-168.62 1033.4 -168.62 1032.74 -168.62 1032.06 C-169.35 1031.96 -170.07 1031.86 -170.81 1031.75 C-173.92 1030.99 -176.03 1029.93 -178.62 1028.06 C-180.4 1022.73 -180.07 1018.11 -177.62 1013.06 C-178.28 1012.73 -178.94 1012.4 -179.62 1012.06 C-178.97 1012.06 -178.31 1012.06 -177.62 1012.06 C-177.56 1011.06 -177.5 1010.06 -177.44 1009.04 C-177.36 1007.74 -177.27 1006.45 -177.19 1005.12 C-177.11 1003.84 -177.03 1002.55 -176.94 1001.22 C-176.62 998.06 -176.62 998.06 -175.62 997.06 C-175.34 994.58 -175.18 992.1 -175 989.61 C-174.62 987.04 -173.91 985.3 -172.62 983.06 C-173.28 982.73 -173.94 982.4 -174.62 982.06 C-173.97 982.06 -173.31 982.06 -172.62 982.06 C-172.56 981.01 -172.5 979.97 -172.44 978.89 C-172.36 977.51 -172.27 976.13 -172.19 974.75 C-172.13 973.71 -172.13 973.71 -172.07 972.66 C-171.88 969.59 -171.6 966.99 -170.62 964.06 C-170.41 962.5 -170.22 960.94 -170.06 959.38 C-169.98 958.57 -169.89 957.76 -169.81 956.93 C-169.72 956 -169.72 956 -169.62 955.06 C-168.97 955.06 -168.31 955.06 -167.62 955.06 C-167.62 953.74 -167.62 952.42 -167.62 951.06 C-168.28 950.73 -168.94 950.4 -169.62 950.06 C-168.97 950.06 -168.31 950.06 -167.62 950.06 C-167.56 949.06 -167.5 948.06 -167.44 947.04 C-167.36 945.74 -167.27 944.45 -167.19 943.12 C-167.11 941.84 -167.03 940.55 -166.94 939.22 C-166.62 936.06 -166.62 936.06 -165.62 935.06 C-165.39 933.21 -165.21 931.36 -165.06 929.5 C-164.98 928.49 -164.89 927.48 -164.81 926.43 C-164.75 925.65 -164.69 924.87 -164.62 924.06 C-163.97 924.06 -163.31 924.06 -162.62 924.06 C-162.81 923.55 -162.99 923.04 -163.18 922.51 C-163.79 919.14 -163.26 916.25 -162.75 912.88 C-162.48 911 -162.48 911 -162.2 909.08 C-161.62 906.06 -161.62 906.06 -160.62 905.06 C-160.34 902.09 -160.18 899.12 -160 896.14 C-159.63 893.12 -158.88 890.82 -157.62 888.06 C-158.28 887.73 -158.94 887.4 -159.62 887.06 C-158.97 887.06 -158.31 887.06 -157.62 887.06 C-157.56 886.15 -157.5 885.23 -157.44 884.29 C-157.36 883.1 -157.27 881.91 -157.19 880.69 C-157.11 879.5 -157.03 878.32 -156.94 877.1 C-156.62 874.06 -156.62 874.06 -155.62 872.06 C-155.35 869.57 -155.18 867.07 -155 864.57 C-154.62 862.02 -153.9 860.28 -152.62 858.06 C-153.28 857.73 -153.94 857.4 -154.62 857.06 C-153.97 857.06 -153.31 857.06 -152.62 857.06 C-152.53 855.56 -152.53 855.56 -152.44 854.04 C-152.36 852.74 -152.27 851.45 -152.19 850.12 C-152.11 848.84 -152.03 847.55 -151.94 846.22 C-151.62 843.06 -151.62 843.06 -150.62 842.06 C-150.34 839.35 -150.18 836.64 -150 833.92 C-149.62 831.01 -148.83 828.73 -147.62 826.06 C-148.28 825.73 -148.94 825.4 -149.62 825.06 C-148.97 825.06 -148.31 825.06 -147.62 825.06 C-147.53 823.56 -147.53 823.56 -147.44 822.04 C-147.36 820.74 -147.27 819.45 -147.19 818.12 C-147.11 816.84 -147.03 815.55 -146.94 814.22 C-146.62 811.06 -146.62 811.06 -145.62 810.06 C-145.39 808.21 -145.21 806.36 -145.06 804.5 C-144.98 803.49 -144.89 802.48 -144.81 801.43 C-144.72 800.26 -144.72 800.26 -144.62 799.06 C-143.97 799.06 -143.31 799.06 -142.62 799.06 C-142.62 798.07 -142.62 797.08 -142.62 796.06 C-143.28 795.73 -143.94 795.4 -144.62 795.06 C-143.97 795.06 -143.31 795.06 -142.62 795.06 C-142.53 793.56 -142.53 793.56 -142.44 792.04 C-142.36 790.74 -142.27 789.45 -142.19 788.12 C-142.11 786.84 -142.03 785.55 -141.94 784.22 C-141.62 781.06 -141.62 781.06 -140.62 780.06 C-140.34 777.09 -140.18 774.12 -140 771.14 C-139.63 768.12 -138.88 765.82 -137.62 763.06 C-138.28 762.73 -138.94 762.4 -139.62 762.06 C-138.97 762.06 -138.31 762.06 -137.62 762.06 C-137.56 761.15 -137.5 760.23 -137.44 759.29 C-137.32 757.51 -137.32 757.51 -137.19 755.69 C-137.11 754.5 -137.03 753.32 -136.94 752.1 C-136.62 749.06 -136.62 749.06 -135.62 747.06 C-135.35 744.57 -135.18 742.07 -135 739.57 C-134.62 737.02 -133.9 735.28 -132.62 733.06 C-133.28 732.73 -133.94 732.4 -134.62 732.06 C-133.97 732.06 -133.31 732.06 -132.62 732.06 C-132.53 730.56 -132.53 730.56 -132.44 729.04 C-132.36 727.74 -132.27 726.45 -132.19 725.12 C-132.11 723.84 -132.03 722.55 -131.94 721.22 C-131.62 718.06 -131.62 718.06 -130.62 717.06 C-130.34 714.35 -130.18 711.64 -130 708.92 C-129.62 706.01 -128.83 703.73 -127.62 701.06 C-128.28 700.73 -128.94 700.4 -129.62 700.06 C-128.97 700.06 -128.31 700.06 -127.62 700.06 C-127.56 699.15 -127.5 698.23 -127.44 697.29 C-127.32 695.51 -127.32 695.51 -127.19 693.69 C-127.11 692.5 -127.03 691.32 -126.94 690.1 C-126.62 687.06 -126.62 687.06 -125.62 685.06 C-125.4 683.19 -125.22 681.32 -125.06 679.44 C-124.98 678.43 -124.89 677.43 -124.81 676.4 C-124.72 675.24 -124.72 675.24 -124.62 674.06 C-123.97 674.06 -123.31 674.06 -122.62 674.06 C-122.62 673.07 -122.62 672.08 -122.62 671.06 C-123.28 670.73 -123.94 670.4 -124.62 670.06 C-123.97 670.06 -123.31 670.06 -122.62 670.06 C-122.53 668.56 -122.53 668.56 -122.44 667.04 C-122.36 665.74 -122.27 664.45 -122.19 663.12 C-122.11 661.84 -122.03 660.55 -121.94 659.22 C-121.62 656.06 -121.62 656.06 -120.62 655.06 C-120.34 652.09 -120.18 649.12 -120 646.14 C-119.63 643.12 -118.88 640.82 -117.62 638.06 C-118.28 637.73 -118.94 637.4 -119.62 637.06 C-118.97 637.06 -118.31 637.06 -117.62 637.06 C-117.56 636.15 -117.5 635.23 -117.44 634.29 C-117.32 632.51 -117.32 632.51 -117.19 630.69 C-117.11 629.5 -117.03 628.32 -116.94 627.1 C-116.62 624.06 -116.62 624.06 -115.62 622.06 C-115.35 619.57 -115.18 617.07 -115 614.57 C-114.62 612.02 -113.9 610.28 -112.62 608.06 C-113.28 607.73 -113.94 607.4 -114.62 607.06 C-113.97 607.06 -113.31 607.06 -112.62 607.06 C-112.56 606.06 -112.5 605.06 -112.44 604.04 C-112.36 602.74 -112.27 601.45 -112.19 600.12 C-112.11 598.84 -112.03 597.55 -111.94 596.22 C-111.62 593.06 -111.62 593.06 -110.62 592.06 C-110.42 590.23 -110.26 588.4 -110.12 586.56 C-109.74 581.17 -109.74 581.17 -108.62 580.06 C-108.25 577.08 -107.92 574.11 -107.62 571.12 C-107.46 569.47 -107.3 567.81 -107.12 566.16 C-107.05 565.42 -106.98 564.69 -106.91 563.93 C-106.62 562.06 -106.62 562.06 -105.62 560.06 C-105.4 558.19 -105.22 556.32 -105.06 554.44 C-104.98 553.43 -104.89 552.43 -104.81 551.4 C-104.75 550.63 -104.69 549.86 -104.62 549.06 C-103.97 549.06 -103.31 549.06 -102.62 549.06 C-102.62 548.07 -102.62 547.08 -102.62 546.06 C-103.28 545.73 -103.94 545.4 -104.62 545.06 C-103.97 545.06 -103.31 545.06 -102.62 545.06 C-102.56 544.06 -102.5 543.06 -102.44 542.04 C-102.36 540.74 -102.27 539.45 -102.19 538.12 C-102.11 536.84 -102.03 535.55 -101.94 534.22 C-101.62 531.06 -101.62 531.06 -100.62 530.06 C-100.42 528.07 -100.26 526.07 -100.12 524.06 C-99.74 518.17 -99.74 518.17 -98.62 517.06 C-98.25 514.08 -97.92 511.11 -97.62 508.12 C-97.46 506.47 -97.3 504.81 -97.12 503.16 C-97.05 502.42 -96.98 501.69 -96.91 500.93 C-96.62 499.06 -96.62 499.06 -95.62 497.06 C-95.35 494.57 -95.18 492.07 -95 489.57 C-94.62 487.02 -93.9 485.28 -92.62 483.06 C-93.28 482.73 -93.94 482.4 -94.62 482.06 C-93.97 482.06 -93.31 482.06 -92.62 482.06 C-92.56 481.06 -92.5 480.06 -92.44 479.04 C-92.32 477.1 -92.32 477.1 -92.19 475.12 C-92.07 473.19 -92.07 473.19 -91.94 471.22 C-91.62 468.06 -91.62 468.06 -90.62 467.06 C-90.42 465.23 -90.26 463.4 -90.12 461.56 C-89.74 456.17 -89.74 456.17 -88.62 455.06 C-88.25 452.08 -87.92 449.11 -87.62 446.12 C-87.46 444.47 -87.3 442.81 -87.12 441.16 C-87.05 440.42 -86.98 439.69 -86.91 438.93 C-86.62 437.06 -86.62 437.06 -85.62 435.06 C-85.4 433.19 -85.22 431.32 -85.06 429.44 C-84.94 427.93 -84.94 427.93 -84.81 426.4 C-84.75 425.63 -84.69 424.86 -84.62 424.06 C-83.97 424.06 -83.31 424.06 -82.62 424.06 C-82.62 423.07 -82.62 422.08 -82.62 421.06 C-83.28 420.73 -83.94 420.4 -84.62 420.06 C-83.97 420.06 -83.31 420.06 -82.62 420.06 C-82.56 419.06 -82.5 418.06 -82.44 417.04 C-82.32 415.1 -82.32 415.1 -82.19 413.12 C-82.07 411.19 -82.07 411.19 -81.94 409.22 C-81.62 406.06 -81.62 406.06 -80.62 405.06 C-80.39 403.05 -80.21 401.02 -80.06 399 C-79.94 397.34 -79.94 397.34 -79.81 395.65 C-79.75 394.8 -79.69 393.94 -79.62 393.06 C-78.97 393.06 -78.31 393.06 -77.62 393.06 C-77.65 391.8 -77.67 390.55 -77.69 389.25 C-77.69 374.12 -77.69 374.12 -75.62 372.06 C-75.34 369.58 -75.18 367.1 -75 364.61 C-74.62 362.04 -73.91 360.3 -72.62 358.06 C-73.28 357.73 -73.94 357.4 -74.62 357.06 C-73.97 357.06 -73.31 357.06 -72.62 357.06 C-72.56 356.06 -72.5 355.06 -72.44 354.04 C-72.32 352.1 -72.32 352.1 -72.19 350.12 C-72.07 348.19 -72.07 348.19 -71.94 346.22 C-71.62 343.06 -71.62 343.06 -70.62 342.06 C-70.42 340.23 -70.26 338.4 -70.12 336.56 C-69.74 331.17 -69.74 331.17 -68.62 330.06 C-68.41 328.66 -68.25 327.25 -68.12 325.84 C-68.04 324.99 -67.96 324.14 -67.88 323.27 C-67.79 322.38 -67.71 321.48 -67.62 320.56 C-67.46 318.8 -67.3 317.04 -67.12 315.28 C-67.05 314.5 -66.98 313.71 -66.91 312.9 C-66.62 311.06 -66.62 311.06 -65.62 310.06 C-65.34 307.58 -65.18 305.1 -65 302.61 C-64.62 300.04 -63.91 298.3 -62.62 296.06 C-63.28 295.73 -63.94 295.4 -64.62 295.06 C-63.97 295.06 -63.31 295.06 -62.62 295.06 C-62.56 294.06 -62.5 293.06 -62.44 292.04 C-62.32 290.1 -62.32 290.1 -62.19 288.12 C-62.07 286.19 -62.07 286.19 -61.94 284.22 C-61.62 281.06 -61.62 281.06 -60.62 280.06 C-60.39 278.05 -60.21 276.02 -60.06 274 C-59.94 272.34 -59.94 272.34 -59.81 270.65 C-59.75 269.8 -59.69 268.94 -59.62 268.06 C-58.97 268.06 -58.31 268.06 -57.62 268.06 C-57.65 266.8 -57.67 265.55 -57.69 264.25 C-57.69 249.12 -57.69 249.12 -55.62 247.06 C-55.34 244.58 -55.18 242.1 -55 239.61 C-54.62 237.04 -53.91 235.3 -52.62 233.06 C-53.28 232.73 -53.94 232.4 -54.62 232.06 C-53.97 232.06 -53.31 232.06 -52.62 232.06 C-52.56 231.06 -52.5 230.06 -52.44 229.04 C-52.32 227.1 -52.32 227.1 -52.19 225.12 C-52.07 223.19 -52.07 223.19 -51.94 221.22 C-51.62 218.06 -51.62 218.06 -50.62 217.06 C-50.42 215.23 -50.26 213.4 -50.12 211.56 C-49.74 206.17 -49.74 206.17 -48.62 205.06 C-48.41 203.66 -48.25 202.25 -48.12 200.84 C-48.04 199.99 -47.96 199.14 -47.88 198.27 C-47.79 197.38 -47.71 196.48 -47.62 195.56 C-47.46 193.8 -47.3 192.04 -47.12 190.28 C-47.05 189.5 -46.98 188.71 -46.91 187.9 C-46.62 186.06 -46.62 186.06 -45.62 185.06 C-45.34 182.58 -45.18 180.1 -45 177.61 C-44.62 175.04 -43.91 173.3 -42.62 171.06 C-43.28 170.73 -43.94 170.4 -44.62 170.06 C-43.97 170.06 -43.31 170.06 -42.62 170.06 C-42.56 169.06 -42.5 168.06 -42.44 167.04 C-42.36 165.74 -42.27 164.45 -42.19 163.12 C-42.07 161.19 -42.07 161.19 -41.94 159.22 C-41.62 156.06 -41.62 156.06 -40.62 155.06 C-40.39 153.05 -40.21 151.02 -40.06 149 C-39.98 147.9 -39.89 146.79 -39.81 145.65 C-39.75 144.8 -39.69 143.94 -39.62 143.06 C-38.97 143.06 -38.31 143.06 -37.62 143.06 C-37.66 141.18 -37.66 141.18 -37.69 139.25 C-37.69 124.12 -37.69 124.12 -35.62 122.06 C-35.34 119.58 -35.18 117.1 -35 114.61 C-34.62 112.04 -33.91 110.3 -32.62 108.06 C-33.28 107.73 -33.94 107.4 -34.62 107.06 C-33.97 107.06 -33.31 107.06 -32.62 107.06 C-32.56 106.06 -32.5 105.06 -32.44 104.04 C-32.36 102.74 -32.27 101.45 -32.19 100.12 C-32.07 98.19 -32.07 98.19 -31.94 96.22 C-31.62 93.06 -31.62 93.06 -30.62 92.06 C-30.42 90.23 -30.26 88.4 -30.12 86.56 C-29.74 81.17 -29.74 81.17 -28.62 80.06 C-28.41 78.66 -28.25 77.25 -28.12 75.84 C-28.04 74.99 -27.96 74.14 -27.88 73.27 C-27.79 72.38 -27.71 71.48 -27.62 70.56 C-27.46 68.8 -27.3 67.04 -27.12 65.28 C-27.05 64.5 -26.98 63.71 -26.91 62.9 C-26.62 61.06 -26.62 61.06 -25.62 60.06 C-25.34 57.58 -25.18 55.1 -25 52.61 C-24.62 50.04 -23.91 48.3 -22.62 46.06 C-23.28 45.73 -23.94 45.4 -24.62 45.06 C-23.97 45.06 -23.31 45.06 -22.62 45.06 C-22.56 44.06 -22.5 43.06 -22.44 42.04 C-22.36 40.74 -22.27 39.45 -22.19 38.12 C-22.07 36.19 -22.07 36.19 -21.94 34.22 C-21.62 31.06 -21.62 31.06 -20.62 30.06 C-20.39 28.38 -20.21 26.69 -20.06 25 C-19.98 24.08 -19.89 23.16 -19.81 22.21 C-19.75 21.5 -19.69 20.79 -19.62 20.06 C-18.97 20.06 -18.31 20.06 -17.62 20.06 C-17.62 19.4 -17.62 18.74 -17.62 18.06 C-18.28 17.73 -18.94 17.4 -19.62 17.06 C-18.97 17.06 -18.31 17.06 -17.62 17.06 C-16.18 12.28 -16.18 12.28 -15.38 7.38 C-14.23 3.83 -11.76 2.85 -8.62 1.06 C-5.74 -0.38 -3.21 -0.03 0 0 Z M-25.62 61.06 C-24.62 63.06 -24.62 63.06 -24.62 63.06 Z M-35.62 123.06 C-34.62 125.06 -34.62 125.06 -34.62 125.06 Z M-45.62 186.06 C-44.62 188.06 -44.62 188.06 -44.62 188.06 Z M221.38 246.06 C222.38 248.06 222.38 248.06 222.38 248.06 Z M-55.62 248.06 C-54.62 250.06 -54.62 250.06 -54.62 250.06 Z M-65.62 311.06 C-64.62 313.06 -64.62 313.06 -64.62 313.06 Z M191.38 313.06 C192.38 315.06 192.38 315.06 192.38 315.06 Z M-75.62 373.06 C-74.62 375.06 -74.62 375.06 -74.62 375.06 Z M-175.62 998.06 C-174.62 1000.06 -174.62 1000.06 -174.62 1000.06 Z M487.38 1172.06 C487.38 1173.05 487.38 1174.04 487.38 1175.06 C489.54 1174.23 489.54 1174.23 490.38 1172.06 C489.38 1172.06 488.39 1172.06 487.38 1172.06 Z M412.38 1217.06 C412.38 1218.05 412.38 1219.04 412.38 1220.06 C414.54 1219.23 414.54 1219.23 415.38 1217.06 C414.38 1217.06 413.39 1217.06 412.38 1217.06 Z M387.38 1232.06 C387.38 1233.05 387.38 1234.04 387.38 1235.06 C388.03 1234.73 388.7 1234.4 389.38 1234.06 C388.72 1233.4 388.05 1232.74 387.38 1232.06 Z M362.38 1247.06 C362.38 1248.05 362.38 1249.04 362.38 1250.06 C363.03 1249.73 363.7 1249.4 364.38 1249.06 C363.72 1248.4 363.05 1247.74 362.38 1247.06 Z M337.38 1262.06 C337.38 1263.05 337.38 1264.04 337.38 1265.06 C339.54 1264.23 339.54 1264.23 340.38 1262.06 C339.38 1262.06 338.39 1262.06 337.38 1262.06 Z M250.38 1273.06 C250.05 1273.72 249.71 1274.38 249.38 1275.06 C250.04 1275.06 250.69 1275.06 251.38 1275.06 C251.05 1274.4 250.71 1273.74 250.38 1273.06 Z " fill="#FBCB27" transform="translate(356.625,-0.0625)"/>
<path d="M0 0 C1.19 0.01 2.38 0.02 3.6 0.03 C4.52 0.04 5.43 0.05 6.38 0.06 C6.38 0.72 6.38 1.38 6.38 2.06 C7.26 2.48 7.26 2.48 8.16 2.91 C16.05 7.02 19.56 13.27 23.38 21.06 C23.81 21.91 24.24 22.77 24.68 23.64 C25.93 26.11 27.15 28.58 28.38 31.06 C29.21 32.73 30.04 34.4 30.88 36.06 C76.69 127.69 76.69 127.69 77.58 129.48 C79.14 132.6 80.71 135.73 82.29 138.85 C86.3 146.8 90.16 154.81 93.93 162.89 C95.84 166.96 97.83 170.96 99.98 174.91 C100.4 175.68 100.82 176.45 101.26 177.25 C102.07 178.72 102.89 180.18 103.72 181.63 C106.46 186.59 106.46 186.59 105.97 189.28 C105.78 189.87 105.58 190.46 105.38 191.06 C106.04 191.06 106.69 191.06 107.38 191.06 C109.81 194.43 110.38 195.8 110.38 200.06 C111.04 200.06 111.69 200.06 112.38 200.06 C113.8 203.38 114.77 206.5 115.38 210.06 C116.04 210.06 116.69 210.06 117.38 210.06 C118.8 213.38 119.77 216.5 120.38 220.06 C121.04 220.06 121.69 220.06 122.38 220.06 C123.8 223.38 124.77 226.5 125.38 230.06 C126.04 230.06 126.69 230.06 127.38 230.06 C128.8 233.38 129.77 236.5 130.38 240.06 C131.04 240.06 131.69 240.06 132.38 240.06 C133.8 243.38 134.77 246.5 135.38 250.06 C136.04 250.06 136.69 250.06 137.38 250.06 C138.8 253.38 139.77 256.5 140.38 260.06 C141.04 260.06 141.69 260.06 142.38 260.06 C142.76 261.08 142.76 261.08 143.15 262.12 C144.58 265.56 146.25 268.87 147.94 272.19 C151 278.25 153.94 284.35 156.81 290.5 C160.03 297.37 163.46 304.08 167.05 310.76 C169.81 315.92 172.39 321.14 174.88 326.44 C175.21 327.16 175.55 327.88 175.9 328.62 C177.2 331.41 178.4 334.14 179.38 337.06 C180.37 337.06 181.36 337.06 182.38 337.06 C182.48 336.38 182.58 335.7 182.69 335 C183.77 330.37 185.74 326.24 188 322.06 C189.54 318.71 189.88 315.69 190.38 312.06 C191.04 311.73 191.69 311.4 192.38 311.06 C193.21 308.98 193.21 308.98 193.88 306.56 C194.59 304.09 194.59 304.09 195.38 302.06 C196.04 301.73 196.69 301.4 197.38 301.06 C198.03 299.04 198.03 299.04 198.38 297.06 C199.04 297.06 199.69 297.06 200.38 297.06 C200.31 295.92 200.31 295.92 200.25 294.75 C200.38 292.06 200.38 292.06 202.38 289.06 C203.43 286.65 204.3 284.38 204.88 281.81 C205.04 281.24 205.2 280.66 205.38 280.06 C206.04 279.73 206.69 279.4 207.38 279.06 C208.28 276.95 208.28 276.95 209 274.5 C209.39 273.26 209.39 273.26 209.79 272 C209.98 271.36 210.18 270.72 210.38 270.06 C211.04 270.06 211.69 270.06 212.38 270.06 C212.5 269.03 212.62 268 212.75 266.94 C213.32 263.42 214.04 260.36 215.38 257.06 C216.04 256.73 216.69 256.4 217.38 256.06 C218.03 254.04 218.03 254.04 218.38 252.06 C219.04 252.06 219.69 252.06 220.38 252.06 C220.29 251.2 220.21 250.33 220.12 249.44 C220.43 245.25 221.94 243.43 224.38 240.06 C225.1 238.42 225.77 236.75 226.38 235.06 C227.04 233.4 227.71 231.73 228.38 230.06 C229.04 230.06 229.69 230.06 230.38 230.06 C230.38 228.41 230.38 226.76 230.38 225.06 C231.04 225.06 231.69 225.06 232.38 225.06 C232.88 223.25 233.38 221.44 233.88 219.62 C234.15 218.62 234.43 217.61 234.72 216.57 C235.42 214.33 235.42 214.33 235.38 213.06 C236.04 212.4 236.69 211.74 237.38 211.06 C238.02 208.99 238.02 208.99 238.38 207.06 C239.04 207.06 239.69 207.06 240.38 207.06 C240.49 206.33 240.6 205.59 240.71 204.83 C242.56 197.09 249.24 189.88 255.38 185.06 C257.79 183.96 259.73 183.5 262.38 183.06 C262.38 182.73 262.38 182.4 262.38 182.06 C270.96 181.62 278.92 181.26 286.38 186.06 C288.39 187.95 290.11 189.88 291.8 192.06 C293.36 194.14 293.36 194.14 295.4 196.02 C297.48 198.17 298.73 200.17 300.12 202.81 C300.64 203.78 301.15 204.75 301.68 205.75 C303.91 210.1 306.09 214.47 308.26 218.86 C310.95 224.28 313.77 229.62 316.67 234.93 C322.38 245.44 322.38 245.44 322.38 250.06 C323.04 250.06 323.69 250.06 324.38 250.06 C327.38 256.69 327.38 256.69 327.38 260.06 C328.04 260.06 328.69 260.06 329.38 260.06 C332.38 266.69 332.38 266.69 332.38 270.06 C333.03 270.06 333.7 270.06 334.38 270.06 C337.38 276.69 337.38 276.69 337.38 280.06 C338.03 280.06 338.7 280.06 339.38 280.06 C342.38 286.69 342.38 286.69 342.38 290.06 C343.03 290.06 343.7 290.06 344.38 290.06 C347.38 296.69 347.38 296.69 347.38 300.06 C348.03 300.06 348.7 300.06 349.38 300.06 C352.38 306.69 352.38 306.69 352.38 310.06 C353.03 310.06 353.7 310.06 354.38 310.06 C354.64 310.83 354.91 311.6 355.18 312.4 C355.53 313.4 355.89 314.4 356.25 315.44 C356.6 316.44 356.95 317.43 357.3 318.46 C358.22 321.17 358.22 321.17 360.38 323.06 C360.5 325.69 360.5 325.69 360.38 328.06 C361.03 328.06 361.7 328.06 362.38 328.06 C364.91 331.48 365.74 333.82 365.38 338.06 C366.03 338.06 366.7 338.06 367.38 338.06 C369.91 341.48 370.74 343.82 370.38 348.06 C371.03 348.06 371.7 348.06 372.38 348.06 C374.91 351.48 375.74 353.82 375.38 358.06 C376.03 358.06 376.7 358.06 377.38 358.06 C379.91 361.48 380.74 363.82 380.38 368.06 C381.03 368.06 381.7 368.06 382.38 368.06 C384.91 371.48 385.74 373.82 385.38 378.06 C386.03 378.06 386.7 378.06 387.38 378.06 C389.91 381.48 390.74 383.82 390.38 388.06 C391.03 388.06 391.7 388.06 392.38 388.06 C394.91 391.48 395.74 393.82 395.38 398.06 C396.03 398.06 396.7 398.06 397.38 398.06 C399.91 401.48 400.74 403.82 400.38 408.06 C401.03 408.06 401.7 408.06 402.38 408.06 C404.41 411.79 405.38 413.73 405.38 418.06 C406.03 418.06 406.7 418.06 407.38 418.06 C408.41 419.95 409.43 421.85 410.44 423.75 C411.01 424.81 411.57 425.86 412.16 426.95 C413.53 430.47 413.49 431.53 412.38 435.06 C410.7 437.34 410.7 437.34 408.51 439.67 C407.69 440.54 406.87 441.42 406.03 442.32 C401.46 447.04 396.85 451.72 392.2 456.37 C391.11 457.46 390.02 458.55 388.92 459.65 C385.99 462.59 383.05 465.53 380.11 468.46 C377.02 471.55 373.93 474.64 370.84 477.73 C365.66 482.92 360.47 488.1 355.28 493.28 C349.3 499.26 343.33 505.24 337.35 511.22 C332.2 516.37 327.05 521.53 321.89 526.68 C318.82 529.75 315.75 532.82 312.69 535.89 C309.8 538.77 306.92 541.66 304.03 544.54 C302.98 545.59 301.93 546.64 300.87 547.7 C295.72 552.86 290.54 557.94 284.97 562.67 C282.02 565.25 279.58 568.26 277.04 571.24 C274.87 573.54 272.7 575.56 270.32 577.63 C262.1 585.01 254.39 592.92 246.6 600.74 C244.79 602.55 242.98 604.36 241.17 606.17 C237.24 610.09 233.32 614.02 229.4 617.95 C223.57 623.79 217.73 629.63 211.9 635.47 C202.08 645.29 192.26 655.12 182.45 664.94 C168.43 678.98 154.42 693 140.4 707.03 C134.77 712.66 129.14 718.29 123.51 723.92 C122.89 724.55 122.26 725.17 121.62 725.82 C106.75 740.69 91.89 755.57 77.02 770.45 C76.37 771.1 75.72 771.75 75.05 772.42 C59.87 787.62 44.69 802.81 29.51 818.01 C28.85 818.67 28.2 819.32 27.52 819.99 C24.23 823.3 20.93 826.6 17.63 829.9 C16.98 830.55 16.33 831.2 15.66 831.87 C14.34 833.19 13.03 834.51 11.71 835.83 C-10 857.56 -31.71 879.29 -53.43 901.02 C-56.49 904.08 -59.56 907.14 -62.62 910.21 C-63.22 910.81 -63.83 911.42 -64.45 912.04 C-74.17 921.76 -83.88 931.49 -93.6 941.22 C-103.34 950.98 -113.09 960.74 -122.85 970.49 C-128.65 976.3 -134.45 982.1 -140.24 987.91 C-144.56 992.24 -148.88 996.56 -153.2 1000.87 C-154.96 1002.63 -156.71 1004.39 -158.47 1006.15 C-160.83 1008.53 -163.21 1010.89 -165.58 1013.26 C-166.28 1013.96 -166.97 1014.66 -167.68 1015.38 C-168.31 1016 -168.94 1016.63 -169.59 1017.27 C-170.13 1017.81 -170.67 1018.36 -171.23 1018.92 C-172.63 1020.06 -172.63 1020.06 -174.62 1020.06 C-174.96 1020.72 -175.28 1021.38 -175.62 1022.06 C-177.1 1019.11 -176.69 1016.32 -176.62 1013.06 C-177.62 1012.73 -178.6 1012.4 -179.62 1012.06 C-178.97 1012.06 -178.31 1012.06 -177.62 1012.06 C-177.56 1011.06 -177.5 1010.06 -177.44 1009.04 C-177.36 1007.74 -177.27 1006.45 -177.19 1005.12 C-177.11 1003.84 -177.03 1002.55 -176.94 1001.22 C-176.62 998.06 -176.62 998.06 -175.62 997.06 C-175.34 994.58 -175.18 992.1 -175 989.61 C-174.62 987.04 -173.91 985.3 -172.62 983.06 C-173.28 982.73 -173.94 982.4 -174.62 982.06 C-173.97 982.06 -173.31 982.06 -172.62 982.06 C-172.56 981.01 -172.5 979.97 -172.44 978.89 C-172.36 977.51 -172.27 976.13 -172.19 974.75 C-172.13 973.71 -172.13 973.71 -172.07 972.66 C-171.88 969.59 -171.6 966.99 -170.62 964.06 C-170.41 962.5 -170.22 960.94 -170.06 959.38 C-169.98 958.57 -169.89 957.76 -169.81 956.93 C-169.72 956 -169.72 956 -169.62 955.06 C-168.97 955.06 -168.31 955.06 -167.62 955.06 C-167.62 953.74 -167.62 952.42 -167.62 951.06 C-168.28 950.73 -168.94 950.4 -169.62 950.06 C-168.97 950.06 -168.31 950.06 -167.62 950.06 C-167.56 949.06 -167.5 948.06 -167.44 947.04 C-167.36 945.74 -167.27 944.45 -167.19 943.12 C-167.11 941.84 -167.03 940.55 -166.94 939.22 C-166.62 936.06 -166.62 936.06 -165.62 935.06 C-165.39 933.21 -165.21 931.36 -165.06 929.5 C-164.98 928.49 -164.89 927.48 -164.81 926.43 C-164.75 925.65 -164.69 924.87 -164.62 924.06 C-163.97 924.06 -163.31 924.06 -162.62 924.06 C-162.81 923.55 -162.99 923.04 -163.18 922.51 C-163.79 919.14 -163.26 916.25 -162.75 912.88 C-162.48 911 -162.48 911 -162.2 909.08 C-161.62 906.06 -161.62 906.06 -160.62 905.06 C-160.34 902.09 -160.18 899.12 -160 896.14 C-159.63 893.12 -158.88 890.82 -157.62 888.06 C-158.28 887.73 -158.94 887.4 -159.62 887.06 C-158.97 887.06 -158.31 887.06 -157.62 887.06 C-157.56 886.15 -157.5 885.23 -157.44 884.29 C-157.36 883.1 -157.27 881.91 -157.19 880.69 C-157.11 879.5 -157.03 878.32 -156.94 877.1 C-156.62 874.06 -156.62 874.06 -155.62 872.06 C-155.35 869.57 -155.18 867.07 -155 864.57 C-154.62 862.02 -153.9 860.28 -152.62 858.06 C-153.28 857.73 -153.94 857.4 -154.62 857.06 C-153.97 857.06 -153.31 857.06 -152.62 857.06 C-152.53 855.56 -152.53 855.56 -152.44 854.04 C-152.36 852.74 -152.27 851.45 -152.19 850.12 C-152.11 848.84 -152.03 847.55 -151.94 846.22 C-151.62 843.06 -151.62 843.06 -150.62 842.06 C-150.34 839.35 -150.18 836.64 -150 833.92 C-149.62 831.01 -148.83 828.73 -147.62 826.06 C-148.28 825.73 -148.94 825.4 -149.62 825.06 C-148.97 825.06 -148.31 825.06 -147.62 825.06 C-147.53 823.56 -147.53 823.56 -147.44 822.04 C-147.36 820.74 -147.27 819.45 -147.19 818.12 C-147.11 816.84 -147.03 815.55 -146.94 814.22 C-146.62 811.06 -146.62 811.06 -145.62 810.06 C-145.39 808.21 -145.21 806.36 -145.06 804.5 C-144.98 803.49 -144.89 802.48 -144.81 801.43 C-144.72 800.26 -144.72 800.26 -144.62 799.06 C-143.97 799.06 -143.31 799.06 -142.62 799.06 C-142.62 798.07 -142.62 797.08 -142.62 796.06 C-143.28 795.73 -143.94 795.4 -144.62 795.06 C-143.97 795.06 -143.31 795.06 -142.62 795.06 C-142.53 793.56 -142.53 793.56 -142.44 792.04 C-142.36 790.74 -142.27 789.45 -142.19 788.12 C-142.11 786.84 -142.03 785.55 -141.94 784.22 C-141.62 781.06 -141.62 781.06 -140.62 780.06 C-140.34 777.09 -140.18 774.12 -140 771.14 C-139.63 768.12 -138.88 765.82 -137.62 763.06 C-138.28 762.73 -138.94 762.4 -139.62 762.06 C-138.97 762.06 -138.31 762.06 -137.62 762.06 C-137.56 761.15 -137.5 760.23 -137.44 759.29 C-137.32 757.51 -137.32 757.51 -137.19 755.69 C-137.11 754.5 -137.03 753.32 -136.94 752.1 C-136.62 749.06 -136.62 749.06 -135.62 747.06 C-135.35 744.57 -135.18 742.07 -135 739.57 C-134.62 737.02 -133.9 735.28 -132.62 733.06 C-133.28 732.73 -133.94 732.4 -134.62 732.06 C-133.97 732.06 -133.31 732.06 -132.62 732.06 C-132.53 730.56 -132.53 730.56 -132.44 729.04 C-132.36 727.74 -132.27 726.45 -132.19 725.12 C-132.11 723.84 -132.03 722.55 -131.94 721.22 C-131.62 718.06 -131.62 718.06 -130.62 717.06 C-130.34 714.35 -130.18 711.64 -130 708.92 C-129.62 706.01 -128.83 703.73 -127.62 701.06 C-128.28 700.73 -128.94 700.4 -129.62 700.06 C-128.97 700.06 -128.31 700.06 -127.62 700.06 C-127.56 699.15 -127.5 698.23 -127.44 697.29 C-127.32 695.51 -127.32 695.51 -127.19 693.69 C-127.11 692.5 -127.03 691.32 -126.94 690.1 C-126.62 687.06 -126.62 687.06 -125.62 685.06 C-125.4 683.19 -125.22 681.32 -125.06 679.44 C-124.98 678.43 -124.89 677.43 -124.81 676.4 C-124.72 675.24 -124.72 675.24 -124.62 674.06 C-123.97 674.06 -123.31 674.06 -122.62 674.06 C-122.62 673.07 -122.62 672.08 -122.62 671.06 C-123.28 670.73 -123.94 670.4 -124.62 670.06 C-123.97 670.06 -123.31 670.06 -122.62 670.06 C-122.53 668.56 -122.53 668.56 -122.44 667.04 C-122.36 665.74 -122.27 664.45 -122.19 663.12 C-122.11 661.84 -122.03 660.55 -121.94 659.22 C-121.62 656.06 -121.62 656.06 -120.62 655.06 C-120.34 652.09 -120.18 649.12 -120 646.14 C-119.63 643.12 -118.88 640.82 -117.62 638.06 C-118.28 637.73 -118.94 637.4 -119.62 637.06 C-118.97 637.06 -118.31 637.06 -117.62 637.06 C-117.56 636.15 -117.5 635.23 -117.44 634.29 C-117.32 632.51 -117.32 632.51 -117.19 630.69 C-117.11 629.5 -117.03 628.32 -116.94 627.1 C-116.62 624.06 -116.62 624.06 -115.62 622.06 C-115.35 619.57 -115.18 617.07 -115 614.57 C-114.62 612.02 -113.9 610.28 -112.62 608.06 C-113.28 607.73 -113.94 607.4 -114.62 607.06 C-113.97 607.06 -113.31 607.06 -112.62 607.06 C-112.56 606.06 -112.5 605.06 -112.44 604.04 C-112.36 602.74 -112.27 601.45 -112.19 600.12 C-112.11 598.84 -112.03 597.55 -111.94 596.22 C-111.62 593.06 -111.62 593.06 -110.62 592.06 C-110.42 590.23 -110.26 588.4 -110.12 586.56 C-109.74 581.17 -109.74 581.17 -108.62 580.06 C-108.25 577.08 -107.92 574.11 -107.62 571.12 C-107.46 569.47 -107.3 567.81 -107.12 566.16 C-107.05 565.42 -106.98 564.69 -106.91 563.93 C-106.62 562.06 -106.62 562.06 -105.62 560.06 C-105.4 558.19 -105.22 556.32 -105.06 554.44 C-104.98 553.43 -104.89 552.43 -104.81 551.4 C-104.75 550.63 -104.69 549.86 -104.62 549.06 C-103.97 549.06 -103.31 549.06 -102.62 549.06 C-102.62 548.07 -102.62 547.08 -102.62 546.06 C-103.28 545.73 -103.94 545.4 -104.62 545.06 C-103.97 545.06 -103.31 545.06 -102.62 545.06 C-102.56 544.06 -102.5 543.06 -102.44 542.04 C-102.36 540.74 -102.27 539.45 -102.19 538.12 C-102.11 536.84 -102.03 535.55 -101.94 534.22 C-101.62 531.06 -101.62 531.06 -100.62 530.06 C-100.42 528.07 -100.26 526.07 -100.12 524.06 C-99.74 518.17 -99.74 518.17 -98.62 517.06 C-98.25 514.08 -97.92 511.11 -97.62 508.12 C-97.46 506.47 -97.3 504.81 -97.12 503.16 C-97.05 502.42 -96.98 501.69 -96.91 500.93 C-96.62 499.06 -96.62 499.06 -95.62 497.06 C-95.35 494.57 -95.18 492.07 -95 489.57 C-94.62 487.02 -93.9 485.28 -92.62 483.06 C-93.28 482.73 -93.94 482.4 -94.62 482.06 C-93.97 482.06 -93.31 482.06 -92.62 482.06 C-92.56 481.06 -92.5 480.06 -92.44 479.04 C-92.32 477.1 -92.32 477.1 -92.19 475.12 C-92.07 473.19 -92.07 473.19 -91.94 471.22 C-91.62 468.06 -91.62 468.06 -90.62 467.06 C-90.42 465.23 -90.26 463.4 -90.12 461.56 C-89.74 456.17 -89.74 456.17 -88.62 455.06 C-88.25 452.08 -87.92 449.11 -87.62 446.12 C-87.46 444.47 -87.3 442.81 -87.12 441.16 C-87.05 440.42 -86.98 439.69 -86.91 438.93 C-86.62 437.06 -86.62 437.06 -85.62 435.06 C-85.4 433.19 -85.22 431.32 -85.06 429.44 C-84.94 427.93 -84.94 427.93 -84.81 426.4 C-84.75 425.63 -84.69 424.86 -84.62 424.06 C-83.97 424.06 -83.31 424.06 -82.62 424.06 C-82.62 423.07 -82.62 422.08 -82.62 421.06 C-83.28 420.73 -83.94 420.4 -84.62 420.06 C-83.97 420.06 -83.31 420.06 -82.62 420.06 C-82.56 419.06 -82.5 418.06 -82.44 417.04 C-82.32 415.1 -82.32 415.1 -82.19 413.12 C-82.07 411.19 -82.07 411.19 -81.94 409.22 C-81.62 406.06 -81.62 406.06 -80.62 405.06 C-80.39 403.05 -80.21 401.02 -80.06 399 C-79.94 397.34 -79.94 397.34 -79.81 395.65 C-79.75 394.8 -79.69 393.94 -79.62 393.06 C-78.97 393.06 -78.31 393.06 -77.62 393.06 C-77.65 391.8 -77.67 390.55 -77.69 389.25 C-77.69 374.12 -77.69 374.12 -75.62 372.06 C-75.34 369.58 -75.18 367.1 -75 364.61 C-74.62 362.04 -73.91 360.3 -72.62 358.06 C-73.28 357.73 -73.94 357.4 -74.62 357.06 C-73.97 357.06 -73.31 357.06 -72.62 357.06 C-72.56 356.06 -72.5 355.06 -72.44 354.04 C-72.32 352.1 -72.32 352.1 -72.19 350.12 C-72.07 348.19 -72.07 348.19 -71.94 346.22 C-71.62 343.06 -71.62 343.06 -70.62 342.06 C-70.42 340.23 -70.26 338.4 -70.12 336.56 C-69.74 331.17 -69.74 331.17 -68.62 330.06 C-68.41 328.66 -68.25 327.25 -68.12 325.84 C-68.04 324.99 -67.96 324.14 -67.88 323.27 C-67.79 322.38 -67.71 321.48 -67.62 320.56 C-67.46 318.8 -67.3 317.04 -67.12 315.28 C-67.05 314.5 -66.98 313.71 -66.91 312.9 C-66.62 311.06 -66.62 311.06 -65.62 310.06 C-65.34 307.58 -65.18 305.1 -65 302.61 C-64.62 300.04 -63.91 298.3 -62.62 296.06 C-63.28 295.73 -63.94 295.4 -64.62 295.06 C-63.97 295.06 -63.31 295.06 -62.62 295.06 C-62.56 294.06 -62.5 293.06 -62.44 292.04 C-62.32 290.1 -62.32 290.1 -62.19 288.12 C-62.07 286.19 -62.07 286.19 -61.94 284.22 C-61.62 281.06 -61.62 281.06 -60.62 280.06 C-60.39 278.05 -60.21 276.02 -60.06 274 C-59.94 272.34 -59.94 272.34 -59.81 270.65 C-59.75 269.8 -59.69 268.94 -59.62 268.06 C-58.97 268.06 -58.31 268.06 -57.62 268.06 C-57.65 266.8 -57.67 265.55 -57.69 264.25 C-57.69 249.12 -57.69 249.12 -55.62 247.06 C-55.34 244.58 -55.18 242.1 -55 239.61 C-54.62 237.04 -53.91 235.3 -52.62 233.06 C-53.28 232.73 -53.94 232.4 -54.62 232.06 C-53.97 232.06 -53.31 232.06 -52.62 232.06 C-52.56 231.06 -52.5 230.06 -52.44 229.04 C-52.32 227.1 -52.32 227.1 -52.19 225.12 C-52.07 223.19 -52.07 223.19 -51.94 221.22 C-51.62 218.06 -51.62 218.06 -50.62 217.06 C-50.42 215.23 -50.26 213.4 -50.12 211.56 C-49.74 206.17 -49.74 206.17 -48.62 205.06 C-48.41 203.66 -48.25 202.25 -48.12 200.84 C-48.04 199.99 -47.96 199.14 -47.88 198.27 C-47.79 197.38 -47.71 196.48 -47.62 195.56 C-47.46 193.8 -47.3 192.04 -47.12 190.28 C-47.05 189.5 -46.98 188.71 -46.91 187.9 C-46.62 186.06 -46.62 186.06 -45.62 185.06 C-45.34 182.58 -45.18 180.1 -45 177.61 C-44.62 175.04 -43.91 173.3 -42.62 171.06 C-43.28 170.73 -43.94 170.4 -44.62 170.06 C-43.97 170.06 -43.31 170.06 -42.62 170.06 C-42.56 169.06 -42.5 168.06 -42.44 167.04 C-42.36 165.74 -42.27 164.45 -42.19 163.12 C-42.07 161.19 -42.07 161.19 -41.94 159.22 C-41.62 156.06 -41.62 156.06 -40.62 155.06 C-40.39 153.05 -40.21 151.02 -40.06 149 C-39.98 147.9 -39.89 146.79 -39.81 145.65 C-39.75 144.8 -39.69 143.94 -39.62 143.06 C-38.97 143.06 -38.31 143.06 -37.62 143.06 C-37.66 141.18 -37.66 141.18 -37.69 139.25 C-37.69 124.12 -37.69 124.12 -35.62 122.06 C-35.34 119.58 -35.18 117.1 -35 114.61 C-34.62 112.04 -33.91 110.3 -32.62 108.06 C-33.28 107.73 -33.94 107.4 -34.62 107.06 C-33.97 107.06 -33.31 107.06 -32.62 107.06 C-32.56 106.06 -32.5 105.06 -32.44 104.04 C-32.36 102.74 -32.27 101.45 -32.19 100.12 C-32.07 98.19 -32.07 98.19 -31.94 96.22 C-31.62 93.06 -31.62 93.06 -30.62 92.06 C-30.42 90.23 -30.26 88.4 -30.12 86.56 C-29.74 81.17 -29.74 81.17 -28.62 80.06 C-28.41 78.66 -28.25 77.25 -28.12 75.84 C-28.04 74.99 -27.96 74.14 -27.88 73.27 C-27.79 72.38 -27.71 71.48 -27.62 70.56 C-27.46 68.8 -27.3 67.04 -27.12 65.28 C-27.05 64.5 -26.98 63.71 -26.91 62.9 C-26.62 61.06 -26.62 61.06 -25.62 60.06 C-25.34 57.58 -25.18 55.1 -25 52.61 C-24.62 50.04 -23.91 48.3 -22.62 46.06 C-23.28 45.73 -23.94 45.4 -24.62 45.06 C-23.97 45.06 -23.31 45.06 -22.62 45.06 C-22.56 44.06 -22.5 43.06 -22.44 42.04 C-22.36 40.74 -22.27 39.45 -22.19 38.12 C-22.07 36.19 -22.07 36.19 -21.94 34.22 C-21.62 31.06 -21.62 31.06 -20.62 30.06 C-20.39 28.38 -20.21 26.69 -20.06 25 C-19.98 24.08 -19.89 23.16 -19.81 22.21 C-19.75 21.5 -19.69 20.79 -19.62 20.06 C-18.97 20.06 -18.31 20.06 -17.62 20.06 C-17.62 19.4 -17.62 18.74 -17.62 18.06 C-18.28 17.73 -18.94 17.4 -19.62 17.06 C-18.97 17.06 -18.31 17.06 -17.62 17.06 C-16.18 12.28 -16.18 12.28 -15.38 7.38 C-14.23 3.83 -11.76 2.85 -8.62 1.06 C-5.74 -0.38 -3.21 -0.03 0 0 Z M-25.62 61.06 C-24.62 63.06 -24.62 63.06 -24.62 63.06 Z M-35.62 123.06 C-34.62 125.06 -34.62 125.06 -34.62 125.06 Z M-45.62 186.06 C-44.62 188.06 -44.62 188.06 -44.62 188.06 Z M221.38 246.06 C222.38 248.06 222.38 248.06 222.38 248.06 Z M-55.62 248.06 C-54.62 250.06 -54.62 250.06 -54.62 250.06 Z M-65.62 311.06 C-64.62 313.06 -64.62 313.06 -64.62 313.06 Z M191.38 313.06 C192.38 315.06 192.38 315.06 192.38 315.06 Z M-75.62 373.06 C-74.62 375.06 -74.62 375.06 -74.62 375.06 Z M-175.62 998.06 C-174.62 1000.06 -174.62 1000.06 -174.62 1000.06 Z " fill="#FBA008" transform="translate(356.625,-0.0625)"/>
<path d="M0 0 C3.34 1.37 4.67 2.58 6.3 5.79 C6.7 6.57 7.1 7.35 7.52 8.15 C8.13 9.37 8.13 9.37 8.75 10.62 C9.14 11.39 9.53 12.15 9.94 12.94 C11.31 15.62 12.66 18.31 14 21 C14.58 22.16 15.16 23.32 15.76 24.52 C17.1 27.2 18.44 29.88 19.78 32.57 C21.72 36.43 23.65 40.3 25.59 44.16 C27.28 47.53 28.97 50.89 30.65 54.25 C31.51 55.95 32.36 57.66 33.22 59.36 C38.18 69.23 43.05 79.15 47.75 89.15 C51.03 96.1 54.45 102.97 57.91 109.83 C59.98 113.95 62.04 118.07 64.09 122.19 C64.99 123.98 65.88 125.77 66.78 127.55 C98.54 191.07 98.54 191.07 100.23 194.49 C101.48 196.97 102.75 199.41 104.06 201.84 C104.4 202.47 104.73 203.11 105.07 203.76 C106.01 205.52 106.96 207.28 107.91 209.03 C109 212 109 212 108.36 214.2 C107.04 215.95 105.73 217.6 104.24 219.21 C103.7 219.79 103.15 220.38 102.59 220.99 C102.03 221.59 101.46 222.19 100.88 222.81 C100.33 223.4 99.79 223.99 99.23 224.6 C96.37 227.66 93.45 230.53 90.27 233.24 C86.06 236.9 82.11 240.76 78.18 244.7 C77.06 245.82 77.06 245.82 75.91 246.97 C73.41 249.47 70.92 251.97 68.42 254.47 C66.61 256.28 64.8 258.1 62.99 259.91 C59.05 263.85 55.12 267.78 51.18 271.72 C45.33 277.58 39.48 283.44 33.63 289.3 C23.79 299.15 13.94 309 4.1 318.86 C-9.95 332.93 -24.01 347 -38.07 361.06 C-43.71 366.71 -49.36 372.35 -55 378 C-55.62 378.63 -56.25 379.25 -56.9 379.9 C-71.81 394.82 -86.72 409.74 -101.63 424.66 C-102.61 425.64 -102.61 425.64 -103.6 426.64 C-118.83 441.88 -134.06 457.12 -149.29 472.37 C-149.94 473.02 -150.6 473.68 -151.28 474.36 C-154.58 477.67 -157.89 480.98 -161.2 484.29 C-161.85 484.94 -162.5 485.6 -163.18 486.27 C-164.49 487.59 -165.81 488.91 -167.13 490.23 C-188.9 512.02 -210.67 533.81 -232.45 555.6 C-235.52 558.67 -238.59 561.74 -241.67 564.82 C-242.27 565.42 -242.88 566.03 -243.5 566.65 C-253.24 576.4 -262.99 586.16 -272.73 595.91 C-282.51 605.71 -292.29 615.49 -302.07 625.28 C-307.89 631.1 -313.71 636.92 -319.52 642.75 C-323.85 647.09 -328.18 651.42 -332.52 655.75 C-334.28 657.51 -336.04 659.28 -337.8 661.04 C-340.17 663.43 -342.55 665.8 -344.94 668.18 C-345.98 669.23 -345.98 669.23 -347.04 670.3 C-347.99 671.24 -347.99 671.24 -348.95 672.2 C-349.5 672.74 -350.04 673.29 -350.6 673.85 C-352 675 -352 675 -354 675 C-354.33 675.66 -354.66 676.32 -355 677 C-354.27 672.89 -352.29 669.39 -350.39 665.73 C-350.02 665.02 -349.66 664.3 -349.28 663.57 C-348.09 661.25 -346.89 658.94 -345.69 656.62 C-344.86 655.02 -344.03 653.41 -343.2 651.8 C-338.43 642.59 -333.57 633.45 -328.55 624.37 C-322.08 612.61 -316.05 600.62 -309.92 588.68 C-306.83 582.66 -303.69 576.67 -300.53 570.69 C-298.39 566.64 -296.26 562.58 -294.15 558.52 C-289.18 548.94 -284.15 539.39 -278.94 529.94 C-274.95 522.7 -271.15 515.41 -267.5 508 C-263.48 499.84 -259.23 491.84 -254.83 483.88 C-250.04 475.17 -245.5 466.33 -240.96 457.48 C-236.69 449.15 -232.35 440.88 -227.81 432.69 C-223.5 424.89 -219.45 416.99 -215.5 409 C-211.13 400.16 -206.58 391.45 -201.8 382.82 C-197.2 374.47 -192.85 365.99 -188.5 357.5 C-183.8 348.31 -179.06 339.16 -174.06 330.12 C-168.42 319.93 -163.12 309.57 -157.82 299.19 C-152.73 289.24 -147.54 279.38 -142.13 269.6 C-138.22 262.49 -134.6 255.26 -131.01 247.98 C-127.72 241.33 -124.2 234.85 -120.55 228.39 C-117.6 223.13 -114.84 217.8 -112.17 212.38 C-107.76 203.43 -103.09 194.61 -98.46 185.78 C-97.15 183.28 -95.84 180.79 -94.54 178.29 C-90.95 171.45 -87.34 164.62 -83.68 157.82 C-76.18 143.91 -68.84 129.92 -61.64 115.84 C-56.77 106.32 -51.8 96.86 -46.62 87.5 C-41.9 78.93 -37.46 70.21 -33 61.5 C-27.52 50.78 -21.97 40.11 -16.15 29.57 C-12.11 22.25 -8.23 14.86 -4.39 7.43 C-3.96 6.6 -3.53 5.77 -3.08 4.92 C-2.51 3.82 -2.51 3.82 -1.93 2.69 C-1 1 -1 1 0 0 Z " fill="#F17E19" transform="translate(536,345)"/>
<path d="M0 0 C0.33 0 0.66 0 1 0 C1 1.65 1 3.3 1 5 C0.67 5 0.34 5 0 5 C0 3.35 0 1.7 0 0 Z " fill="#000000" transform="translate(1102,1014)"/>
<path d="M0 0 C1 4 1 4 1 4 Z " fill="#000000" transform="translate(1090,945)"/>
<path d="M0 0 C1 4 1 4 1 4 Z " fill="#000000" transform="translate(1080,887)"/>
<path d="M0 0 C1 4 1 4 1 4 Z " fill="#000000" transform="translate(1065,800)"/>
<path d="M0 0 C1 4 1 4 1 4 Z " fill="#000000" transform="translate(1040,655)"/>
<path d="M0 0 C1 4 1 4 1 4 Z " fill="#000000" transform="translate(1010,480)"/>
<path d="M0 0 C1 4 1 4 1 4 Z " fill="#000000" transform="translate(1000,422)"/>
<path d="M0 0 C1 4 1 4 1 4 Z " fill="#000000" transform="translate(985,335)"/>
<path d="" fill="#000000" transform="translate(0,0)"/>
<path d="" fill="#000000" transform="translate(0,0)"/>
<path d="" fill="#000000" transform="translate(0,0)"/>
<path d="" fill="#000000" transform="translate(0,0)"/>
<path d="" fill="#000000" transform="translate(0,0)"/>
<path d="" fill="#000000" transform="translate(0,0)"/>
<path d="" fill="#000000" transform="translate(0,0)"/>
<path d="" fill="#000000" transform="translate(0,0)"/>
<path d="" fill="#000000" transform="translate(0,0)"/>
<path d="" fill="#000000" transform="translate(0,0)"/>
<path d="M0 0 C2 1 2 1 2 1 Z " fill="#000000" transform="translate(594,1272)"/>
<path d="" fill="#000000" transform="translate(0,0)"/>
<path d="" fill="#000000" transform="translate(0,0)"/>
<path d="" fill="#000000" transform="translate(0,0)"/>
<path d="" fill="#000000" transform="translate(0,0)"/>
<path d="" fill="#000000" transform="translate(0,0)"/>
<path d="" fill="#000000" transform="translate(0,0)"/>
<path d="" fill="#000000" transform="translate(0,0)"/>
<path d="" fill="#000000" transform="translate(0,0)"/>
<path d="" fill="#000000" transform="translate(0,0)"/>
<path d="" fill="#000000" transform="translate(0,0)"/>
<path d="" fill="#000000" transform="translate(0,0)"/>
<path d="" fill="#000000" transform="translate(0,0)"/>
<path d="" fill="#000000" transform="translate(0,0)"/>
<path d="" fill="#FCA108" transform="translate(0,0)"/>
<path d="" fill="#000000" transform="translate(0,0)"/>
<path d="" fill="#FCCC28" transform="translate(0,0)"/>
<path d="" fill="#FCCC28" transform="translate(0,0)"/>
<path d="" fill="#000000" transform="translate(0,0)"/>
<path d="" fill="#000000" transform="translate(0,0)"/>
<path d="" fill="#FCA108" transform="translate(0,0)"/>
<path d="" fill="#000000" transform="translate(0,0)"/>
<path d="" fill="#000000" transform="translate(0,0)"/>
<path d="" fill="#FCA108" transform="translate(0,0)"/>
<path d="" fill="#000000" transform="translate(0,0)"/>
<path d="" fill="#FCA108" transform="translate(0,0)"/>
</svg>
